<svg id="visual" viewBox="0 0 900 300" width="900" height="300" xmlns="http://www.w3.org/2000/svg" xmlns:xlink="http://www.w3.org/1999/xlink" version="1.1"><rect x="0" y="0" width="900" height="300" fill="#000000"></rect><path d="M0 94L25 87.3C50 80.7 100 67.3 150 64.8C200 62.3 250 70.7 300 84.7C350 98.7 400 118.3 450 127.7C500 137 550 136 600 128.7C650 121.3 700 107.7 750 97.7C800 87.7 850 81.3 875 78.2L900 75L900 0L875 0C850 0 800 0 750 0C700 0 650 0 600 0C550 0 500 0 450 0C400 0 350 0 300 0C250 0 200 0 150 0C100 0 50 0 25 0L0 0Z" fill="#5C66F7" stroke-linecap="round" stroke-linejoin="miter"></path></svg>